<svg width="30" height="30" viewBox="0 0 30 30" fill="none" xmlns="http://www.w3.org/2000/svg">
<circle cx="15" cy="15" r="15" fill="#FEE500"/>
<path d="M15.0433 7.23944C10.3765 7.23944 6.61298 10.2503 6.61298 13.9054C6.61298 16.278 8.17862 18.3554 10.5271 19.5417L9.73221 22.5105C9.71723 22.5549 9.71492 22.6027 9.72556 22.6484C9.73619 22.6942 9.75935 22.736 9.79243 22.7693C9.84067 22.8119 9.90274 22.8354 9.96706 22.8356C10.0204 22.8313 10.071 22.8102 10.1116 22.7754L13.5319 20.4691C14.0368 20.5388 14.5457 20.5749 15.0554 20.5774C19.7162 20.5774 23.4858 17.5666 23.4858 13.9054C23.4858 10.2442 19.7041 7.23944 15.0433 7.23944Z" fill="#392020"/>
<path d="M9.56335 12.8516H8.64203C8.52784 12.8549 8.41506 12.8257 8.31686 12.7673C8.27326 12.74 8.23578 12.7039 8.20676 12.6614C8.17775 12.619 8.15783 12.5709 8.14825 12.5204C8.14533 12.4883 8.14533 12.4561 8.14825 12.4241C8.14539 12.3641 8.15703 12.3043 8.18219 12.2498C8.20735 12.1953 8.24528 12.1477 8.29277 12.111C8.39775 12.0349 8.52446 11.9948 8.65407 11.9965H11.4301C11.5452 11.9925 11.6587 12.024 11.7552 12.0868C11.7999 12.1129 11.8381 12.1487 11.8673 12.1914C11.8965 12.2341 11.9158 12.2827 11.9239 12.3338C11.9268 12.3638 11.9268 12.3941 11.9239 12.4241C11.9267 12.4849 11.9151 12.5455 11.89 12.601C11.8648 12.6565 11.8269 12.7052 11.7793 12.7432C11.6769 12.8191 11.5514 12.8574 11.4241 12.8516H10.5328V16.019C10.5365 16.0865 10.526 16.154 10.5022 16.2172C10.4783 16.2804 10.4416 16.338 10.3943 16.3863C10.349 16.4325 10.2945 16.4687 10.2344 16.4926C10.1742 16.5164 10.1097 16.5274 10.0451 16.5248C9.93199 16.5281 9.8213 16.4919 9.73196 16.4225C9.6469 16.3547 9.58917 16.2584 9.56937 16.1515C9.56342 16.1075 9.56342 16.063 9.56937 16.019L9.56335 12.8516Z" fill="#FEE500"/>
<path d="M12.1896 12.2314C12.2161 12.1323 12.2783 12.0465 12.3643 11.9905C12.4559 11.9386 12.5602 11.9135 12.6654 11.9182H12.8942C13.0058 11.9142 13.1163 11.9413 13.2133 11.9965C13.3162 12.0657 13.3893 12.171 13.4181 12.2916L14.6224 15.6938C14.6536 15.7826 14.6798 15.8731 14.7007 15.9649C14.7028 16.003 14.7028 16.0411 14.7007 16.0792C14.7027 16.1379 14.6919 16.1963 14.669 16.2504C14.6462 16.3045 14.6118 16.353 14.5682 16.3924C14.526 16.4356 14.4754 16.4697 14.4194 16.4925C14.3635 16.5153 14.3034 16.5263 14.243 16.5248C14.1502 16.5341 14.0569 16.5118 13.9782 16.4615C13.8996 16.4113 13.8401 16.336 13.8095 16.2479L13.5566 15.5072H11.9729L11.72 16.2479C11.69 16.3378 11.6299 16.4145 11.5497 16.465C11.4696 16.5155 11.3744 16.5366 11.2804 16.5248C11.1785 16.5275 11.0788 16.4957 10.9973 16.4345C10.918 16.3714 10.8644 16.2815 10.8468 16.1816C10.8436 16.1476 10.8436 16.1133 10.8468 16.0792C10.8365 16.0195 10.8365 15.9584 10.8468 15.8986C10.8468 15.8324 10.889 15.7601 10.913 15.6938L12.1896 12.2314ZM12.7918 13.0202L12.2198 14.8267H13.3579L12.7918 13.0202Z" fill="#FEE500"/>
<path d="M14.8386 12.4242C14.8325 12.289 14.8801 12.157 14.9711 12.0568C15.0173 12.0102 15.0728 11.9738 15.134 11.9499C15.1952 11.926 15.2607 11.9152 15.3264 11.9183C15.4392 11.917 15.5492 11.953 15.6395 12.0207C15.7231 12.0913 15.7787 12.1896 15.796 12.2977C15.802 12.3396 15.802 12.3822 15.796 12.4242V15.5916H17.452C17.5668 15.5901 17.6796 15.6214 17.7772 15.6818C17.821 15.7089 17.8587 15.7449 17.8877 15.7874C17.9168 15.8299 17.9366 15.8781 17.9458 15.9288C17.9458 15.9288 17.9458 15.989 17.9458 16.0191C17.9487 16.0791 17.937 16.1388 17.9119 16.1933C17.8867 16.2478 17.8488 16.2955 17.8013 16.3322C17.6963 16.4083 17.5696 16.4484 17.44 16.4466H15.4046C15.275 16.455 15.1462 16.4212 15.0373 16.3503C14.94 16.2775 14.8751 16.1694 14.8567 16.0492C14.8523 15.9831 14.8523 15.9166 14.8567 15.8505L14.8386 12.4242Z" fill="#FEE500"/>
<path d="M18.0543 12.4242C18.0507 12.2894 18.098 12.1583 18.1867 12.0569C18.277 11.9749 18.3928 11.9264 18.5145 11.9199C18.6363 11.9133 18.7566 11.9489 18.8552 12.0207C18.9406 12.0907 18.9983 12.1889 19.0177 12.2977C19.0207 12.3398 19.0207 12.3821 19.0177 12.4242V13.8995L20.5412 12.1411C20.5999 12.0811 20.6623 12.0249 20.7279 11.9726C20.7897 11.9357 20.8607 11.9169 20.9326 11.9183C21.0379 11.9177 21.1408 11.9493 21.2277 12.0087C21.2686 12.0362 21.3036 12.0718 21.3305 12.1132C21.3574 12.1546 21.3757 12.2009 21.3843 12.2495C21.3867 12.2615 21.3867 12.2738 21.3843 12.2857C21.3813 12.2996 21.3813 12.3139 21.3843 12.3278C21.3841 12.3912 21.3675 12.4535 21.3361 12.5085C21.3041 12.5668 21.2658 12.6213 21.2217 12.671L20.2221 13.767L21.4264 15.6337V15.6939C21.4889 15.7802 21.5377 15.8758 21.5709 15.977V16.0071C21.5779 16.0768 21.5678 16.1473 21.5416 16.2123C21.5154 16.2773 21.4738 16.335 21.4204 16.3804C21.3199 16.4563 21.197 16.4966 21.0711 16.4949C20.9875 16.4983 20.9044 16.4796 20.8303 16.4406C20.7501 16.3868 20.684 16.3146 20.6376 16.2299L19.5175 14.4234L18.9816 14.9834V15.989C18.9852 16.1237 18.9379 16.2549 18.8491 16.3563C18.8015 16.4028 18.7449 16.4391 18.6828 16.463C18.6207 16.4868 18.5543 16.4976 18.4878 16.4949C18.3767 16.4972 18.2682 16.461 18.1807 16.3925C18.0957 16.3247 18.0379 16.2285 18.0181 16.1215C18.0122 16.0776 18.0122 16.0329 18.0181 15.989L18.0543 12.4242Z" fill="#FEE500"/>
</svg>
